{
    "asset" : {
        "generator" : "Khronos glTF Blender I/O v1.5.17",
        "version" : "2.0"
    },
    "scene" : 0,
    "scenes" : [
        {
            "name" : "Scene",
            "nodes" : [
                0
            ]
        }
    ],
    "nodes" : [
        {
            "mesh" : 0,
            "name" : "DeskClosedMetal",
            "scale" : [
                0.8999999761581421,
                0.03999999910593033,
                0.5999999642372131
            ]
        }
    ],
    "materials" : [
        {
            "doubleSided" : true,
            "name" : "Metal",
            "pbrMetallicRoughness" : {
                "baseColorFactor" : [
                    0.3515327572822571,
                    0.35153263807296753,
                    0.3515326678752899,
                    1
                ],
                "metallicFactor" : 0,
                "roughnessFactor" : 0.10000000149011612
            }
        }
    ],
    "meshes" : [
        {
            "name" : "Cube.001",
            "primitives" : [
                {
                    "attributes" : {
                        "POSITION" : 0,
                        "NORMAL" : 1,
                        "TEXCOORD_0" : 2
                    },
                    "indices" : 3,
                    "material" : 0
                },
                {
                    "attributes" : {
                        "POSITION" : 4,
                        "NORMAL" : 5,
                        "TEXCOORD_0" : 6
                    },
                    "indices" : 7,
                    "material" : 0
                }
            ]
        }
    ],
    "accessors" : [
        {
            "bufferView" : 0,
            "componentType" : 5126,
            "count" : 828,
            "max" : [
                1,
                1,
                1.2380061149597168
            ],
            "min" : [
                -1,
                -20.999998092651367,
                -1
            ],
            "type" : "VEC3"
        },
        {
            "bufferView" : 1,
            "componentType" : 5126,
            "count" : 828,
            "type" : "VEC3"
        },
        {
            "bufferView" : 2,
            "componentType" : 5126,
            "count" : 828,
            "type" : "VEC2"
        },
        {
            "bufferView" : 3,
            "componentType" : 5123,
            "count" : 1725,
            "type" : "SCALAR"
        },
        {
            "bufferView" : 4,
            "componentType" : 5126,
            "count" : 584,
            "max" : [
                -0.4086669385433197,
                -4.704263687133789,
                1.2693675756454468
            ],
            "min" : [
                -0.5753335356712341,
                -5.376309394836426,
                1.2167855501174927
            ],
            "type" : "VEC3"
        },
        {
            "bufferView" : 5,
            "componentType" : 5126,
            "count" : 584,
            "type" : "VEC3"
        },
        {
            "bufferView" : 6,
            "componentType" : 5126,
            "count" : 584,
            "type" : "VEC2"
        },
        {
            "bufferView" : 7,
            "componentType" : 5123,
            "count" : 1068,
            "type" : "SCALAR"
        }
    ],
    "bufferViews" : [
        {
            "buffer" : 0,
            "byteLength" : 9936,
            "byteOffset" : 0
        },
        {
            "buffer" : 0,
            "byteLength" : 9936,
            "byteOffset" : 9936
        },
        {
            "buffer" : 0,
            "byteLength" : 6624,
            "byteOffset" : 19872
        },
        {
            "buffer" : 0,
            "byteLength" : 3450,
            "byteOffset" : 26496
        },
        {
            "buffer" : 0,
            "byteLength" : 7008,
            "byteOffset" : 29948
        },
        {
            "buffer" : 0,
            "byteLength" : 7008,
            "byteOffset" : 36956
        },
        {
            "buffer" : 0,
            "byteLength" : 4672,
            "byteOffset" : 43964
        },
        {
            "buffer" : 0,
            "byteLength" : 2136,
            "byteOffset" : 48636
        }
    ],
    "buffers" : [
        {
            "byteLength" : 50772,
            "uri" : "data:application/octet-stream;base64,"
        }
    ]
}
