{
    "asset" : {
        "generator" : "Khronos glTF Blender I/O v1.5.17",
        "version" : "2.0"
    },
    "scene" : 0,
    "scenes" : [
        {
            "name" : "Scene",
            "nodes" : [
                0
            ]
        }
    ],
    "nodes" : [
        {
            "mesh" : 0,
            "name" : "DeskClosedMetal",
            "scale" : [
                0.8999999761581421,
                0.03999999910593033,
                0.5999999642372131
            ],
            "translation" : [
                -0.6968761682510376,
                -0.16795971989631653,
                0.81092369556427
            ]
        }
    ],
    "materials" : [
        {
            "doubleSided" : true,
            "name" : "Metal",
            "pbrMetallicRoughness" : {
                "baseColorFactor" : [
                    0.35055506229400635,
                    0.35055506229400635,
                    0.35055506229400635,
                    1
                ],
                "roughnessFactor" : 0.30000001192092896
            }
        },
        {
            "doubleSided" : true,
            "name" : "MetalSmooth",
            "pbrMetallicRoughness" : {
                "baseColorFactor" : [
                    0.2202569842338562,
                    0.2202569842338562,
                    0.2202569842338562,
                    1
                ],
                "roughnessFactor" : 0.1666666567325592
            }
        }
    ],
    "meshes" : [
        {
            "name" : "Cube.002",
            "primitives" : [
                {
                    "attributes" : {
                        "POSITION" : 0,
                        "NORMAL" : 1,
                        "TEXCOORD_0" : 2
                    },
                    "indices" : 3,
                    "material" : 0
                },
                {
                    "attributes" : {
                        "POSITION" : 4,
                        "NORMAL" : 5,
                        "TEXCOORD_0" : 6
                    },
                    "indices" : 7,
                    "material" : 1
                }
            ]
        }
    ],
    "accessors" : [
        {
            "bufferView" : 0,
            "componentType" : 5126,
            "count" : 681,
            "max" : [
                1,
                1,
                1
            ],
            "min" : [
                -1,
                -20.999998092651367,
                -1
            ],
            "type" : "VEC3"
        },
        {
            "bufferView" : 1,
            "componentType" : 5126,
            "count" : 681,
            "type" : "VEC3"
        },
        {
            "bufferView" : 2,
            "componentType" : 5126,
            "count" : 681,
            "type" : "VEC2"
        },
        {
            "bufferView" : 3,
            "componentType" : 5123,
            "count" : 1080,
            "type" : "SCALAR"
        },
        {
            "bufferView" : 4,
            "componentType" : 5126,
            "count" : 759,
            "max" : [
                -0.408666729927063,
                -4.437499046325684,
                0.9272615909576416
            ],
            "min" : [
                -0.5753333568572998,
                -5.062499046325684,
                0.8772616386413574
            ],
            "type" : "VEC3"
        },
        {
            "bufferView" : 5,
            "componentType" : 5126,
            "count" : 759,
            "type" : "VEC3"
        },
        {
            "bufferView" : 6,
            "componentType" : 5126,
            "count" : 759,
            "type" : "VEC2"
        },
        {
            "bufferView" : 7,
            "componentType" : 5123,
            "count" : 1068,
            "type" : "SCALAR"
        }
    ],
    "bufferViews" : [
        {
            "buffer" : 0,
            "byteLength" : 8172,
            "byteOffset" : 0
        },
        {
            "buffer" : 0,
            "byteLength" : 8172,
            "byteOffset" : 8172
        },
        {
            "buffer" : 0,
            "byteLength" : 5448,
            "byteOffset" : 16344
        },
        {
            "buffer" : 0,
            "byteLength" : 2160,
            "byteOffset" : 21792
        },
        {
            "buffer" : 0,
            "byteLength" : 9108,
            "byteOffset" : 23952
        },
        {
            "buffer" : 0,
            "byteLength" : 9108,
            "byteOffset" : 33060
        },
        {
            "buffer" : 0,
            "byteLength" : 6072,
            "byteOffset" : 42168
        },
        {
            "buffer" : 0,
            "byteLength" : 2136,
            "byteOffset" : 48240
        }
    ],
    "buffers" : [
        {
            "byteLength" : 50376,
            "uri" : "data:application/octet-stream;base64,"
        }
    ]
}
