{
    "asset" : {
        "generator" : "Khronos glTF Blender I/O v1.5.17",
        "version" : "2.0"
    },
    "scene" : 0,
    "scenes" : [
        {
            "name" : "Scene",
            "nodes" : [
                0
            ]
        }
    ],
    "nodes" : [
        {
            "mesh" : 0,
            "name" : "Door",
            "rotation" : [
                0.7071068286895752,
                0,
                0,
                0.7071068286895752
            ],
            "scale" : [
                0.5,
                0.25,
                1.5
            ],
            "translation" : [
                4.105737389181741e-06,
                1.5279070138931274,
                -0.03184778615832329
            ]
        }
    ],
    "materials" : [
        {
            "doubleSided" : true,
            "name" : "Metal",
            "pbrMetallicRoughness" : {
                "baseColorFactor" : [
                    0.38581106066703796,
                    0.3858117461204529,
                    0.3858117461204529,
                    1
                ],
                "roughnessFactor" : 0.3499999940395355
            }
        },
        {
            "doubleSided" : true,
            "name" : "MetalSmooth",
            "pbrMetallicRoughness" : {
                "baseColorFactor" : [
                    0.09692656248807907,
                    0.09692669659852982,
                    0.09692669659852982,
                    1
                ],
                "roughnessFactor" : 0.3499999940395355
            }
        },
        {
            "doubleSided" : true,
            "emissiveFactor" : [
                1,
                1,
                1
            ],
            "name" : "Glow",
            "pbrMetallicRoughness" : {
                "baseColorFactor" : [
                    0.800000011920929,
                    0.800000011920929,
                    0.800000011920929,
                    1
                ],
                "metallicFactor" : 0,
                "roughnessFactor" : 0.5
            }
        }
    ],
    "meshes" : [
        {
            "name" : "Cube.003",
            "primitives" : [
                {
                    "attributes" : {
                        "POSITION" : 0,
                        "NORMAL" : 1,
                        "TEXCOORD_0" : 2
                    },
                    "indices" : 3,
                    "material" : 0
                },
                {
                    "attributes" : {
                        "POSITION" : 4,
                        "NORMAL" : 5,
                        "TEXCOORD_0" : 6
                    },
                    "indices" : 7,
                    "material" : 1
                },
                {
                    "attributes" : {
                        "POSITION" : 8,
                        "NORMAL" : 9,
                        "TEXCOORD_0" : 10
                    },
                    "indices" : 11,
                    "material" : 2
                }
            ]
        }
    ],
    "accessors" : [
        {
            "bufferView" : 0,
            "componentType" : 5126,
            "count" : 6706,
            "max" : [
                0.999991774559021,
                1.4586961269378662,
                1.0212318897247314
            ],
            "min" : [
                -1.000008225440979,
                0.5186961889266968,
                -0.9787681698799133
            ],
            "type" : "VEC3"
        },
        {
            "bufferView" : 1,
            "componentType" : 5126,
            "count" : 6706,
            "type" : "VEC3"
        },
        {
            "bufferView" : 2,
            "componentType" : 5126,
            "count" : 6706,
            "type" : "VEC2"
        },
        {
            "bufferView" : 3,
            "componentType" : 5123,
            "count" : 11139,
            "type" : "SCALAR"
        },
        {
            "bufferView" : 4,
            "componentType" : 5126,
            "count" : 8410,
            "max" : [
                0.9972406029701233,
                1.3884696960449219,
                0.9619760513305664
            ],
            "min" : [
                -0.9974063634872437,
                1.0298677682876587,
                -0.9190574288368225
            ],
            "type" : "VEC3"
        },
        {
            "bufferView" : 5,
            "componentType" : 5126,
            "count" : 8410,
            "type" : "VEC3"
        },
        {
            "bufferView" : 6,
            "componentType" : 5126,
            "count" : 8410,
            "type" : "VEC2"
        },
        {
            "bufferView" : 7,
            "componentType" : 5123,
            "count" : 28080,
            "type" : "SCALAR"
        },
        {
            "bufferView" : 8,
            "componentType" : 5126,
            "count" : 116,
            "max" : [
                0.8232150673866272,
                1.2853628396987915,
                0.8444551229476929
            ],
            "min" : [
                -0.8232315182685852,
                1.1520295143127441,
                -0.8019914627075195
            ],
            "type" : "VEC3"
        },
        {
            "bufferView" : 9,
            "componentType" : 5126,
            "count" : 116,
            "type" : "VEC3"
        },
        {
            "bufferView" : 10,
            "componentType" : 5126,
            "count" : 116,
            "type" : "VEC2"
        },
        {
            "bufferView" : 11,
            "componentType" : 5123,
            "count" : 288,
            "type" : "SCALAR"
        }
    ],
    "bufferViews" : [
        {
            "buffer" : 0,
            "byteLength" : 80472,
            "byteOffset" : 0
        },
        {
            "buffer" : 0,
            "byteLength" : 80472,
            "byteOffset" : 80472
        },
        {
            "buffer" : 0,
            "byteLength" : 53648,
            "byteOffset" : 160944
        },
        {
            "buffer" : 0,
            "byteLength" : 22278,
            "byteOffset" : 214592
        },
        {
            "buffer" : 0,
            "byteLength" : 100920,
            "byteOffset" : 236872
        },
        {
            "buffer" : 0,
            "byteLength" : 100920,
            "byteOffset" : 337792
        },
        {
            "buffer" : 0,
            "byteLength" : 67280,
            "byteOffset" : 438712
        },
        {
            "buffer" : 0,
            "byteLength" : 56160,
            "byteOffset" : 505992
        },
        {
            "buffer" : 0,
            "byteLength" : 1392,
            "byteOffset" : 562152
        },
        {
            "buffer" : 0,
            "byteLength" : 1392,
            "byteOffset" : 563544
        },
        {
            "buffer" : 0,
            "byteLength" : 928,
            "byteOffset" : 564936
        },
        {
            "buffer" : 0,
            "byteLength" : 576,
            "byteOffset" : 565864
        }
    ],
    "buffers" : [
        {
            "byteLength" : 566440,
            "uri" : "data:application/octet-stream;base64,"
        }
    ]
}
